<svg xmlns="http://www.w3.org/2000/svg" xmlns:xlink="http://www.w3.org/1999/xlink" style="enable-background:new 0 0 1599.7 656" id="Layer_1" x="0" y="0" version="1.1" viewBox="0 0 1599.7 656" xml:space="preserve"><style type="text/css">.st0{clip-path:url(#SVGID_2_)}.st1{fill:url(#a-6_2_)}.st2{fill:url(#a-6_3_)}.st3{fill:url(#SVGID_3_)}.st3,.st4,.st5,.st6{opacity:.2;enable-background:new}.st4{fill:url(#SVGID_4_)}.st5{fill:url(#SVGID_5_)}.st6{fill:url(#SVGID_6_)}</style><g><title>bg</title><g><defs><rect id="SVGID_1_" width="1599.7" height="656"/></defs><clipPath id="SVGID_2_"><use style="overflow:visible" xlink:href="#SVGID_1_"/></clipPath><g class="st0"><g><path id="a-5" d="M1599.7,0H0v656h1599.7V0z"/></g><linearGradient id="a-6_2_" x1="990.931" x2="991.951" y1="558.396" y2="557.386" gradientTransform="matrix(-1600 0 0 -640 1587105.625 357377.9375)" gradientUnits="userSpaceOnUse"><stop style="stop-color:#3369e7" offset="0"/><stop style="stop-color:#843cf6" offset="1"/></linearGradient><path id="a-6" d="M1599.7,0H0v656h1599.7V0z" class="st1"/><linearGradient id="a-6_3_" x1="990.931" x2="991.951" y1="558.396" y2="557.386" gradientTransform="matrix(-1600 0 0 -640 1587105.625 357377.9375)" gradientUnits="userSpaceOnUse"><stop style="stop-color:#00aeff" offset="0"/><stop style="stop-color:#3369e7" offset="1"/></linearGradient><path id="a-6_1_" d="M1599.7,0H0v656h1599.7V0z" class="st2"/><g><linearGradient id="SVGID_3_" x1="989.35" x2="990.15" y1="560.574" y2="560.574" gradientTransform="matrix(1569 0 0 -80 -1552057.875 45337.9492)" gradientUnits="userSpaceOnUse"><stop style="stop-color:#fff;stop-opacity:0" offset="0"/><stop style="stop-color:#fff" offset="1"/></linearGradient><path d="M0,451h1528.7c22.1,0,40,18.4,40,41l0,0c0,22.7-17.9,41-40,41H0V451z" class="st3"/></g><g><linearGradient id="SVGID_4_" x1="989.401" x2="990.201" y1="558.529" y2="558.529" gradientTransform="matrix(1666 0 0 -240 -1648095.625 134497.9531)" gradientUnits="userSpaceOnUse"><stop style="stop-color:#fff;stop-opacity:0" offset="0"/><stop style="stop-color:#fff" offset="1"/></linearGradient><path d="M0,410h1122.8c22.1,0,40,18.4,40,41l0,0c0,22.6-17.9,41-40,41H0V410z M0,328h1625.7c22.1,0,40,18.4,40,41 l0,0c0,22.6-17.9,41-40,41H0V328z M0,492h1370.7c22.1,0,40,18.4,40,41l0,0c0,22.6-17.9,41-40,41H0V492z" class="st4"/></g><g><linearGradient id="SVGID_5_" x1="989.576" x2="990.376" y1="558.928" y2="558.928" gradientTransform="matrix(2112.99 0 0 -169.91 -2091036.875 95587.6094)" gradientUnits="userSpaceOnUse"><stop style="stop-color:#fff;stop-opacity:0" offset="0"/><stop style="stop-color:#fff" offset="1"/></linearGradient><path d="M-384.9,533h959.8c22.1,0,40,18.3,40,41l0,0c0,22.6-17.9,41-40,41h-959.8L-384.9,533L-384.9,533z M0,615 h1682.7c24.8,0,44.9,20.6,44.9,46.1l0,0c0,25.5-20.1,46.1-44.9,46.1H0V615z" class="st5"/></g><g><linearGradient id="SVGID_6_" x1="988.848" x2="989.648" y1="560.549" y2="560.549" gradientTransform="matrix(1000 0 0 -80 -988702.375 45417.9492)" gradientUnits="userSpaceOnUse"><stop style="stop-color:#fff;stop-opacity:0" offset="0"/><stop style="stop-color:#fff" offset="1"/></linearGradient><path d="M0,533h959.8c22.1,0,40,18.3,40,41l0,0c0,22.6-17.9,41-40,41H0V533z" class="st6"/></g></g></g></g></svg>